<svg xmlns:xlink="http://www.w3.org/1999/xlink" xmlns="http://www.w3.org/2000/svg" width="92" height="142" viewBox="0 0 92 142" fill="none"><path opacity="0.03" d="M90.4401 112.7L49.5701 89.1101C47.5201 87.9301 44.2101 87.9301 42.1801 89.1101L1.58009 112.7C-0.459914 113.88 -0.439895 115.8 1.60011 116.98L42.4701 140.57C44.5201 141.75 47.8301 141.75 49.8601 140.57L90.4601 116.98C92.5001 115.8 92.4901 113.88 90.4401 112.7Z" fill="#15E8FF"/><path opacity="0.1" d="M90.4401 106.88L49.5701 83.29C47.5201 82.11 44.2101 82.11 42.1801 83.29L1.58009 106.88C-0.459914 108.06 -0.439895 109.98 1.60011 111.16L42.4701 134.75C44.5201 135.93 47.8301 135.93 49.8601 134.75L90.4601 111.16C92.5001 109.98 92.4901 108.06 90.4401 106.88Z" fill="#FE1AFF"/><path opacity="0.2" d="M90.4401 100.78L49.5701 77.1899C47.5201 76.0099 44.2101 76.0099 42.1801 77.1899L1.58009 100.78C-0.459914 101.96 -0.439895 103.88 1.60011 105.06L42.4701 128.65C44.5201 129.83 47.8301 129.83 49.8601 128.65L90.4601 105.06C92.5001 103.87 92.4901 101.96 90.4401 100.78Z" fill="#DA3CFF"/><path opacity="0.4" d="M90.4401 94.09L49.5701 70.5C47.5201 69.32 44.2101 69.32 42.1801 70.5L1.58009 94.09C-0.459914 95.27 -0.439895 97.19 1.60011 98.37L42.4701 121.96C44.5201 123.14 47.8301 123.14 49.8601 121.96L90.4601 98.37C92.5001 97.19 92.4901 95.27 90.4401 94.09Z" fill="#E854FF"/><path opacity="0.6" d="M90.4401 87.11L49.5701 63.52C47.5201 62.34 44.2101 62.34 42.1801 63.52L1.58009 87.11C-0.459914 88.29 -0.439895 90.21 1.60011 91.39L42.4701 114.98C44.5201 116.16 47.8301 116.16 49.8601 114.98L90.4601 91.39C92.5001 90.21 92.4901 88.29 90.4401 87.11Z" fill="#FF56FF"/><path d="M91.9801 76.12V82.21C91.9801 82.27 91.9801 82.33 91.9801 82.39V82.65H91.9501C91.8201 83.3 91.3301 83.9301 90.4701 84.4301L49.8701 108.03C47.8401 109.21 44.5301 109.21 42.4801 108.03L1.61005 84.4399C0.750046 83.9399 0.250062 83.31 0.110062 82.66H0.0700684V76C0.0700684 76.77 0.590046 77.55 1.61005 78.14L42.4801 101.73C44.5301 102.91 47.8401 102.91 49.8701 101.73L90.4701 78.13C91.4201 77.57 91.9301 76.85 91.9801 76.12Z" fill="url(#paint0_linear_1_4348)"/><path d="M90.4401 74.3199L49.5701 50.73C47.5201 49.55 44.2101 49.55 42.1801 50.73L1.58009 74.3199C-0.459914 75.4999 -0.439895 77.42 1.60011 78.6L42.4701 102.19C44.5201 103.37 47.8301 103.37 49.8601 102.19L90.4601 78.6C92.5001 77.42 92.4901 75.4999 90.4401 74.3199Z" fill="url(#paint1_linear_1_4348)"/><path d="M90.4401 73.84L49.5701 50.25C47.5201 49.07 44.2101 49.07 42.1801 50.25L1.58009 73.84C-0.459914 75.02 -0.439895 76.94 1.60011 78.12L42.4701 101.71C44.5201 102.89 47.8301 102.89 49.8601 101.71L90.4601 78.12C92.5001 76.94 92.4901 75.02 90.4401 73.84Z" fill="url(#paint2_linear_1_4348)"/><path d="M46.0202 88.2101C55.8729 88.2101 63.8602 82.4839 63.8602 75.4202C63.8602 68.3564 55.8729 62.6301 46.0202 62.6301C36.1674 62.6301 28.1802 68.3564 28.1802 75.4202C28.1802 82.4839 36.1674 88.2101 46.0202 88.2101Z" fill="#FFB2D7"/><path d="M40.55 0.830078L54.6301 3.40009L61.3101 16.05L47.2401 13.48L40.55 0.830078Z" fill="url(#paint3_linear_1_4348)"/><path d="M40.55 0.830078L31.3101 13.4301L38.0001 26.0801L47.2401 13.48L40.55 0.830078Z" fill="url(#paint4_linear_1_4348)"/><path d="M47.24 13.48L61.31 16.05L52.08 28.65L38 26.08L47.24 13.48Z" fill="url(#paint5_linear_1_4348)"/><path d="M52.04 18.6001L66.12 21.1701L72.8 33.8301L58.73 31.2601L52.04 18.6001Z" fill="url(#paint6_linear_1_4348)"/><path d="M52.0401 18.6001L42.8 31.2001L49.4901 43.8601L58.7301 31.2601L52.0401 18.6001Z" fill="url(#paint7_linear_1_4348)"/><path d="M58.73 31.2603L72.8 33.8303L63.57 46.4302L49.49 43.8602L58.73 31.2603Z" fill="url(#paint8_linear_1_4348)"/><path d="M34.78 29.9502L48.86 32.5102L55.55 45.1702L41.47 42.6002L34.78 29.9502Z" fill="url(#paint9_linear_1_4348)"/><path d="M34.7801 29.9502L25.55 42.5502L32.2401 55.2002L41.4701 42.6002L34.7801 29.9502Z" fill="url(#paint10_linear_1_4348)"/><path d="M41.47 42.6001L55.55 45.1701L46.31 57.7701L32.24 55.2001L41.47 42.6001Z" fill="url(#paint11_linear_1_4348)"/><path d="M5.94019 10.6401L28.1802 75.4202H63.8702L87.6502 10.6401H5.94019Z" fill="url(#paint12_linear_1_4348)"/><defs><linearGradient id="paint0_linear_1_4348" x1="0.0632684" y1="92.4415" x2="91.9842" y2="92.4415" gradientUnits="userSpaceOnUse"><stop stop-color="#6B2569"/><stop offset="0.179" stop-color="#892277"/><stop offset="0.3801" stop-color="#A52084"/><stop offset="0.4973" stop-color="#AF1F89"/><stop offset="0.5293" stop-color="#B61F94"/><stop offset="0.6804" stop-color="#D61DC2"/><stop offset="0.8146" stop-color="#EC1BE3"/><stop offset="0.9258" stop-color="#FA1AF8"/><stop offset="1" stop-color="#FF1AFF"/></linearGradient><linearGradient id="paint1_linear_1_4348" x1="0.0636954" y1="76.4572" x2="91.9856" y2="76.4572" gradientUnits="userSpaceOnUse"><stop stop-color="#005BAA"/><stop offset="0.453" stop-color="#0BA2D5"/><stop offset="0.8164" stop-color="#12D4F3"/><stop offset="0.9946" stop-color="#15E8FF"/></linearGradient><linearGradient id="paint2_linear_1_4348" x1="0.0636954" y1="75.9821" x2="91.9856" y2="75.9821" gradientUnits="userSpaceOnUse"><stop offset="0.00540507" stop-color="#FF15FF"/><stop offset="0.1804" stop-color="#EB16EC"/><stop offset="0.5373" stop-color="#B919BA"/><stop offset="1" stop-color="#6F1D72"/></linearGradient><linearGradient id="paint3_linear_1_4348" x1="40.5564" y1="0.806948" x2="61.3208" y2="16.0282" gradientUnits="userSpaceOnUse"><stop stop-color="#00FFFB"/><stop offset="1" stop-color="#00B4FF"/></linearGradient><linearGradient id="paint4_linear_1_4348" x1="34.0905" y1="9.62756" x2="44.4726" y2="17.2381" gradientUnits="userSpaceOnUse"><stop stop-color="#00FFFB"/><stop offset="1" stop-color="#00B4FF"/></linearGradient><linearGradient id="paint5_linear_1_4348" x1="44.4725" y1="17.238" x2="54.8549" y2="24.8487" gradientUnits="userSpaceOnUse"><stop stop-color="#00FFFB"/><stop offset="1" stop-color="#00B4FF"/></linearGradient><linearGradient id="paint6_linear_1_4348" x1="52.0455" y1="18.5845" x2="72.81" y2="33.8058" gradientUnits="userSpaceOnUse"><stop offset="1.98895e-07" stop-color="#614DB7"/><stop offset="1" stop-color="#00B3FF"/></linearGradient><linearGradient id="paint7_linear_1_4348" x1="45.5796" y1="27.4051" x2="55.9617" y2="35.0157" gradientUnits="userSpaceOnUse"><stop offset="1.98895e-07" stop-color="#614DB7"/><stop offset="1" stop-color="#00B3FF"/></linearGradient><linearGradient id="paint8_linear_1_4348" x1="55.9617" y1="35.0158" x2="66.3441" y2="42.6266" gradientUnits="userSpaceOnUse"><stop offset="1.98895e-07" stop-color="#614DB7"/><stop offset="1" stop-color="#00B3FF"/></linearGradient><linearGradient id="paint9_linear_1_4348" x1="34.7922" y1="29.9258" x2="55.5567" y2="45.1471" gradientUnits="userSpaceOnUse"><stop stop-color="#E785FB"/><stop offset="1" stop-color="#BB17B1"/></linearGradient><linearGradient id="paint10_linear_1_4348" x1="28.3263" y1="38.7464" x2="38.7085" y2="46.357" gradientUnits="userSpaceOnUse"><stop stop-color="#E785FB"/><stop offset="1" stop-color="#BB17B1"/></linearGradient><linearGradient id="paint11_linear_1_4348" x1="38.7084" y1="46.3569" x2="49.0908" y2="53.9676" gradientUnits="userSpaceOnUse"><stop stop-color="#E785FB"/><stop offset="1" stop-color="#BB17B1"/></linearGradient><linearGradient id="paint12_linear_1_4348" x1="46.7942" y1="75.4243" x2="46.7942" y2="10.6384" gradientUnits="userSpaceOnUse"><stop offset="0.00540522" stop-color="#FFB2D7"/><stop offset="0.3064" stop-color="#FFC5E1" stop-opacity="0.6973"/><stop offset="0.9173" stop-color="#FFF8FB" stop-opacity="0.0831"/><stop offset="1" stop-color="white" stop-opacity="0"/></linearGradient></defs></svg>