<svg xmlns:xlink="http://www.w3.org/1999/xlink" xmlns="http://www.w3.org/2000/svg" width="93" height="140" viewBox="0 0 93 140" fill="none"><path opacity="0.03" d="M90.9999 110.7L50.1299 87.1101C48.0799 85.9301 44.7699 85.9301 42.7399 87.1101L2.13993 110.7C0.0999304 111.88 0.119889 113.8 2.15989 114.98L43.0299 138.57C45.0799 139.75 48.3899 139.75 50.4199 138.57L91.0199 114.98C93.0499 113.8 93.0399 111.88 90.9999 110.7Z" fill="#15E8FF"/><path opacity="0.1" d="M90.9999 104.88L50.1299 81.29C48.0799 80.11 44.7699 80.11 42.7399 81.29L2.13993 104.88C0.0999304 106.06 0.119889 107.98 2.15989 109.16L43.0299 132.75C45.0799 133.93 48.3899 133.93 50.4199 132.75L91.0199 109.16C93.0499 107.98 93.0399 106.06 90.9999 104.88Z" fill="#FE1AFF"/><path opacity="0.2" d="M90.9999 98.78L50.1299 75.1899C48.0799 74.0099 44.7699 74.0099 42.7399 75.1899L2.13993 98.78C0.0999304 99.96 0.119889 101.88 2.15989 103.06L43.0299 126.65C45.0799 127.83 48.3899 127.83 50.4199 126.65L91.0199 103.06C93.0499 101.87 93.0399 99.96 90.9999 98.78Z" fill="#DA3CFF"/><path opacity="0.4" d="M90.9999 92.09L50.1299 68.5C48.0799 67.32 44.7699 67.32 42.7399 68.5L2.13993 92.09C0.0999304 93.27 0.119889 95.19 2.15989 96.37L43.0299 119.96C45.0799 121.14 48.3899 121.14 50.4199 119.96L91.0199 96.37C93.0499 95.19 93.0399 93.27 90.9999 92.09Z" fill="#E854FF"/><path opacity="0.6" d="M90.9999 85.11L50.1299 61.52C48.0799 60.34 44.7699 60.34 42.7399 61.52L2.13993 85.11C0.0999304 86.29 0.119889 88.21 2.15989 89.39L43.0299 112.98C45.0799 114.16 48.3899 114.16 50.4199 112.98L91.0199 89.39C93.0499 88.21 93.0399 86.29 90.9999 85.11Z" fill="#FF56FF"/><path d="M92.5299 74.12V80.21C92.5299 80.27 92.5299 80.33 92.5299 80.39V80.65H92.4999C92.3699 81.3 91.8799 81.9301 91.0199 82.4301L50.4199 106.03C48.3899 107.21 45.0799 107.21 43.0299 106.03L2.15985 82.4399C1.29985 81.9399 0.799851 81.31 0.659851 80.66H0.619873V74C0.619873 74.77 1.13985 75.55 2.15985 76.14L43.0299 99.73C45.0799 100.91 48.3899 100.91 50.4199 99.73L91.0199 76.13C91.9799 75.57 92.4799 74.85 92.5299 74.12Z" fill="url(#paint0_linear_1_4401)"/><path d="M90.9999 72.3199L50.1299 48.73C48.0799 47.55 44.7699 47.55 42.7399 48.73L2.13993 72.3199C0.0999304 73.4999 0.119889 75.42 2.15989 76.6L43.0299 100.19C45.0799 101.37 48.3899 101.37 50.4199 100.19L91.0199 76.6C93.0499 75.42 93.0399 73.4999 90.9999 72.3199Z" fill="url(#paint1_linear_1_4401)"/><path d="M90.9999 71.84L50.1299 48.25C48.0799 47.07 44.7699 47.07 42.7399 48.25L2.13993 71.84C0.0999304 73.02 0.119889 74.94 2.15989 76.12L43.0299 99.7099C45.0799 100.89 48.3899 100.89 50.4199 99.7099L91.0199 76.12C93.0499 74.94 93.0399 73.02 90.9999 71.84Z" fill="url(#paint2_linear_1_4401)"/><path d="M46.58 86.2098C56.4328 86.2098 64.42 80.4836 64.42 73.4199C64.42 66.3562 56.4328 60.6299 46.58 60.6299C36.7273 60.6299 28.74 66.3562 28.74 73.4199C28.74 80.4836 36.7273 86.2098 46.58 86.2098Z" fill="#FFB2D7"/><path d="M46.0699 46.71C44.5099 46.71 42.7598 46.42 40.9698 45.57C40.5298 45.36 40.0698 45.27 39.6598 45.32C37.9698 45.51 33.7499 45.55 30.2099 42.08C28.8499 41.85 25.4799 40.98 23.8199 37.96C23.5199 37.41 23.0698 36.9399 22.5398 36.5999C19.3598 34.6199 18.6099 31.3499 20.5099 27.8499C20.5699 27.7499 20.5798 27.6299 20.5398 27.5499C17.8498 21.0499 22.8099 18.1599 24.3999 17.4199C24.4799 17.3799 25.0298 17.03 24.9898 16.15C24.9798 16.04 24.7398 12.4399 27.1098 9.84992C28.5898 8.22992 30.7198 7.39993 33.4298 7.35993C33.4998 7.34993 33.9699 7.27995 34.2699 6.87995C34.3499 6.77995 34.4099 6.61993 34.4499 6.41993C34.8899 4.15993 36.7299 1.74995 40.5799 1.74995C40.5799 1.74995 40.5799 1.74995 40.5899 1.74995C40.7599 1.74995 40.9198 1.69993 41.0398 1.60993C42.0898 0.839934 45.8599 -1.45002 50.0099 1.33998C50.2499 1.49998 50.5798 1.54992 50.9098 1.46992C55.7698 0.27992 59.4299 1.98995 60.8799 6.05995C63.6399 5.97995 66.6899 7.27992 67.2699 11.1599C67.2799 11.2399 67.3499 11.3099 67.4399 11.3499C69.9799 12.3699 71.4699 14.4199 71.5199 16.9999C71.5199 17.1499 71.5699 17.28 71.6399 17.34C72.5699 18.09 74.6298 20.24 73.5398 23.96C73.3798 24.51 73.5199 25.13 73.8999 25.58C75.5199 27.45 75.6599 29.75 74.2699 31.88C74.0199 32.26 73.8899 32.74 73.8999 33.27C73.9299 36.05 72.2999 38.28 69.4399 39.39C68.8699 39.61 68.3898 39.97 68.0498 40.44C66.5998 42.43 64.5798 43.4999 62.4098 43.4699C61.9598 43.4699 61.5599 43.5999 61.2499 43.8699C59.8699 45.0299 56.8698 46.84 52.3698 45.88C51.7198 45.74 51.0598 45.7699 50.4698 45.9699C49.4498 46.3199 47.8899 46.71 46.0699 46.71Z" fill="#5F1DDB"/><path d="M30.79 40.9401C30.79 40.9401 24.49 36.8001 28.11 27.8201C28.3 27.3401 28.37 26.8101 28.28 26.3101C28.07 25.1301 28.04 22.71 30.81 21.3C31.27 21.06 31.56 20.5901 31.58 20.0801C31.65 18.4901 32.45 15.19 37.65 14.22C38.18 14.12 38.67 13.8401 38.99 13.4001C39.75 12.3801 41.59 10.6501 44.97 11.4401C45.49 11.5601 46.03 11.37 46.38 10.97C47.29 9.94003 49.41 8.22009 53.24 8.78009C53.65 8.84009 54.06 8.67008 54.31 8.34008C55.05 7.40008 56.85 5.72003 59.52 7.10003C59.83 7.26003 60.18 7.33004 60.52 7.30004C61.89 7.20004 65.44 7.33003 66.04 11.35C66.12 11.86 66.48 12.29 66.96 12.48C68.16 12.96 70.22 14.1901 70.28 17.0301C70.29 17.5101 70.48 17.99 70.86 18.29C71.75 19.01 73.21 20.6901 72.36 23.6301C72.08 24.5801 72.32 25.6301 72.97 26.3801C73.85 27.4001 74.64 29.08 73.24 31.22C72.84 31.83 72.67 32.5601 72.67 33.2801C72.69 34.6801 72.18 37.0101 68.98 38.2501C68.21 38.5501 67.54 39.0501 67.05 39.7101C66.27 40.7901 64.75 42.28 62.41 42.24C61.69 42.23 60.99 42.46 60.44 42.92C59.2 43.96 56.58 45.53 52.59 44.67C51.74 44.49 50.86 44.52 50.04 44.8C48.31 45.4 44.95 46.1201 41.47 44.4601C40.85 44.1701 40.18 44.0201 39.5 44.0901C37.76 44.3101 33.95 44.2501 30.79 40.9401Z" fill="url(#paint3_linear_1_4401)"/><path d="M28.1099 27.82C28.2999 27.34 28.37 26.81 28.28 26.31C28.07 25.13 28.0399 22.71 30.8099 21.3C31.2699 21.06 31.56 20.59 31.58 20.08C31.65 18.49 32.45 15.1899 37.65 14.2199C38.18 14.1199 38.6699 13.84 38.9899 13.4C39.7499 12.38 41.5899 10.65 44.9699 11.44C45.4899 11.56 46.0299 11.3699 46.3799 10.9699C47.2799 9.93995 49.4099 8.22001 53.2399 8.78001C53.6499 8.84001 54.0599 8.67001 54.3099 8.34001C55.0499 7.40001 56.85 5.71995 59.52 7.09995C59.66 7.16995 59.8 7.21998 59.95 7.24998C58.47 1.53998 53.3899 2.1 51.1699 2.65C50.5299 2.81 49.8499 2.71995 49.2999 2.34995C45.8899 0.0699545 42.8699 1.75001 41.7199 2.59001C41.3799 2.84001 40.9699 2.96 40.5499 2.96C36.6499 2.96 35.7899 5.71 35.6099 6.65C35.5399 6.99 35.42 7.32996 35.21 7.60996C34.53 8.51996 33.46 8.56999 33.46 8.56999C25.62 8.64999 26.1799 16.09 26.1799 16.09C26.2599 17.87 24.89 18.52 24.89 18.52C19.71 20.91 20.95 25.39 21.65 27.08C21.83 27.52 21.7899 28.01 21.5599 28.43C19.3899 32.42 21.6199 34.61 23.1599 35.57C23.8699 36.01 24.4599 36.64 24.8699 37.37C26.6299 40.57 30.78 40.94 30.78 40.94C30.78 40.94 24.4899 36.8 28.1099 27.82Z" fill="url(#paint4_linear_1_4401)"/><path d="M73.5599 31.41C74.7399 29.59 74.6299 27.72 73.2599 26.13C72.6899 25.47 72.4799 24.55 72.7299 23.72C73.6399 20.6 72.0999 18.8 71.1099 18C70.8399 17.78 70.6799 17.42 70.6699 17.02C70.6099 13.98 68.4199 12.66 67.1199 12.14C66.7499 11.99 66.4899 11.67 66.4299 11.3C66.4299 11.28 66.4199 11.26 66.4199 11.26C65.7399 6.89002 61.7299 6.84 60.5199 6.93C60.4399 6.94 60.3699 6.93 60.2899 6.93C60.2799 6.93 60.2699 6.92999 60.2599 6.91999C58.6099 1.12999 53.3299 1.73998 51.1099 2.28998C50.5499 2.42998 49.9699 2.33998 49.5299 2.03998C45.9299 -0.370016 42.7399 1.40998 41.5299 2.28998C41.2599 2.48998 40.9299 2.59003 40.5799 2.59003C40.5799 2.59003 40.5799 2.59003 40.5699 2.59003C36.3699 2.59003 35.4599 5.64001 35.2799 6.57001C35.2199 6.90001 35.1099 7.17001 34.9499 7.38001C34.3799 8.13001 33.4799 8.20002 33.4899 8.20002C30.9999 8.23002 29.0699 8.96999 27.7499 10.42C27.4299 10.77 27.1699 11.13 26.9499 11.51C26.9399 11.52 26.9399 11.53 26.9299 11.54C25.6899 13.66 25.8399 16 25.8499 16.11C25.9199 17.61 24.8099 18.17 24.7699 18.19C21.7899 19.57 20.8399 21.63 20.6999 23.48C20.6799 23.54 20.6799 23.61 20.6899 23.68C20.6199 25.21 21.0699 26.57 21.3399 27.22C21.4799 27.55 21.4499 27.92 21.2699 28.25C20.4699 29.72 19.0299 33.41 22.9999 35.88C23.6599 36.29 24.2099 36.87 24.5799 37.55C26.2599 40.6 29.9099 41.2 30.6399 41.29C33.8299 44.56 37.5999 44.69 39.5799 44.47C40.1499 44.41 40.7699 44.52 41.3499 44.8C42.9999 45.59 44.6299 45.86 46.0799 45.86C47.7899 45.86 49.2399 45.49 50.1899 45.16C50.9199 44.91 51.7399 44.86 52.5399 45.04C56.6899 45.93 59.4299 44.28 60.6999 43.21C61.1699 42.81 61.7899 42.6 62.4299 42.61C65.0099 42.65 66.6299 40.95 67.3699 39.93C67.7999 39.33 68.4199 38.87 69.1399 38.59C69.5399 38.43 69.8999 38.26 70.2199 38.08C70.2199 38.08 70.2299 38.08 70.2299 38.07C72.6899 36.66 73.0799 34.52 73.0599 33.27C73.0399 32.58 73.2199 31.94 73.5599 31.41ZM25.1999 37.2C24.8299 36.52 24.2999 35.94 23.6699 35.48C23.6899 35.48 23.7099 35.48 23.7299 35.48C24.2099 35.48 24.7199 35.39 25.1599 35.1C25.8499 34.65 26.2199 33.83 26.2499 32.68C26.2499 32.48 26.0999 32.31 25.8999 32.31C25.6999 32.31 25.5299 32.46 25.5299 32.66C25.5099 33.56 25.2499 34.18 24.7699 34.49C23.9399 35.03 22.6299 34.59 22.3599 34.49C21.0999 33.3 20.3399 31.44 21.8899 28.6C22.1799 28.08 22.2099 27.47 21.9899 26.94C21.7799 26.43 21.5299 25.7 21.4299 24.86C21.8099 25.26 22.2699 25.57 22.7899 25.77C23.1699 25.92 23.5699 25.99 23.9599 25.99C24.3999 25.99 24.8299 25.9 25.2299 25.72C26.8099 25.01 27.3499 23.29 26.6199 21.23C26.5499 21.04 26.3499 20.94 26.1599 21.01C25.9699 21.08 25.8699 21.28 25.9399 21.47C26.1599 22.1 26.7499 24.23 24.9399 25.05C24.1899 25.39 23.4999 25.26 23.0599 25.09C22.3499 24.82 21.7399 24.25 21.3999 23.55C21.5299 21.89 22.3999 20.08 25.0599 18.85C25.1099 18.83 26.0799 18.35 26.4299 17.16C26.6999 17.46 27.0799 17.76 27.5999 17.93C27.8699 18.02 28.1599 18.06 28.4599 18.06C29.4899 18.06 30.6899 17.56 32.0399 16.55C32.1999 16.43 32.2399 16.2 32.1199 16.04C31.9999 15.88 31.7699 15.84 31.6099 15.96C30.0899 17.09 28.7799 17.53 27.8299 17.23C26.9799 16.97 26.6299 16.19 26.5499 16.01C26.5299 15.68 26.4999 13.7 27.5199 11.92C28.1699 11.37 28.9899 10.98 29.7699 10.87C30.9299 10.7 31.6899 11.22 32.5799 11.83C33.0699 12.16 33.5899 12.51 34.1999 12.76C34.7299 12.97 35.2599 13.08 35.7599 13.08C36.3899 13.08 36.9699 12.92 37.4299 12.59C37.5899 12.47 37.6299 12.25 37.5199 12.08C37.4099 11.92 37.1799 11.88 37.0099 11.99C36.3699 12.43 35.4199 12.47 34.4599 12.08C33.9199 11.86 33.4399 11.54 32.9799 11.22C32.0499 10.59 31.0899 9.94003 29.6599 10.15C29.3999 10.19 29.1399 10.25 28.8799 10.33C30.0299 9.42002 31.5599 8.93999 33.4799 8.91999C33.5299 8.91999 34.5199 8.84999 35.2899 8.04999C35.9599 8.37999 37.7399 8.98998 39.8599 7.53998C40.4299 7.14998 41.0599 6.97001 41.5399 7.07001C41.8599 7.13001 42.0999 7.30999 42.2899 7.60999C42.4099 7.79999 42.4899 8.02002 42.5799 8.26002C42.7199 8.65002 42.8799 9.09999 43.2599 9.41999C43.5099 9.62999 43.8599 9.81 44.3399 9.81C44.8999 9.81 45.6299 9.57001 46.5799 8.88001C46.7399 8.76001 46.7799 8.53 46.6599 8.37C46.5399 8.21 46.3099 8.16998 46.1499 8.28998C45.3899 8.83998 44.3599 9.38999 43.7299 8.85999C43.4999 8.66999 43.3899 8.35002 43.2699 8.01002C43.1699 7.74002 43.0699 7.47003 42.9099 7.21003C42.6199 6.75003 42.1899 6.45998 41.6899 6.34998C41.0099 6.20998 40.1999 6.42 39.4599 6.93C37.7499 8.1 36.3299 7.71001 35.7299 7.44001C35.8399 7.22001 35.9199 6.97002 35.9799 6.70002C36.1799 5.68002 37.0199 3.31 40.5599 3.31C40.5599 3.31 40.5599 3.31 40.5699 3.31C41.0799 3.31 41.5499 3.16 41.9499 2.87C43.0299 2.08 45.8999 0.480011 49.1199 2.63001C49.4399 2.84001 49.7999 2.98004 50.1899 3.03004C50.2399 3.04004 53.0099 3.78998 52.9699 7.40998C52.9699 7.60998 53.1299 7.78004 53.3299 7.78004C53.5299 7.78004 53.6899 7.61999 53.6899 7.41999C53.7199 4.89999 52.5299 3.57999 51.5599 2.91999C56.6499 1.77999 58.6299 4.44998 59.3899 6.59998C59.3499 6.57998 59.3099 6.56999 59.2599 6.54999C59.1799 6.51999 59.0899 6.48002 59.0099 6.45002C58.9199 6.42002 58.8299 6.38999 58.7399 6.35999C58.6599 6.33999 58.5799 6.30999 58.4999 6.29999C58.4199 6.27999 58.3299 6.26001 58.2499 6.25001C58.1699 6.24001 58.0899 6.22003 58.0099 6.21003C57.9299 6.20003 57.8499 6.19001 57.7799 6.19001C57.6999 6.19001 57.6199 6.18 57.5499 6.18C57.4799 6.18 57.4099 6.18001 57.3399 6.19001C57.2599 6.19001 57.1899 6.20003 57.1099 6.21003C57.0399 6.22003 56.9799 6.23 56.9199 6.24C56.8499 6.25 56.7699 6.27004 56.6999 6.28004C56.6399 6.29004 56.5799 6.31002 56.5299 6.33002C56.4599 6.35002 56.3899 6.37002 56.3199 6.39002C56.2699 6.41002 56.2099 6.43002 56.1599 6.45002C56.0899 6.48002 56.0199 6.50004 55.9599 6.53004C55.9099 6.55004 55.8699 6.57998 55.8199 6.59998C55.7499 6.62998 55.6899 6.66002 55.6299 6.70002C55.5899 6.72002 55.5499 6.75004 55.4999 6.78004C55.4399 6.82004 55.3799 6.85002 55.3199 6.89002C55.2799 6.92002 55.2399 6.93998 55.2099 6.96998C55.1499 7.00998 55.0999 7.05003 55.0399 7.09003C54.9999 7.12003 54.9699 7.14999 54.9399 7.16999C54.8899 7.20999 54.8399 7.24999 54.7899 7.29999C54.7599 7.32999 54.7299 7.36002 54.6899 7.39002C54.6499 7.43002 54.5999 7.47002 54.5599 7.51002C54.5299 7.54002 54.4999 7.57999 54.4599 7.60999C54.4299 7.64999 54.3899 7.67998 54.3599 7.71998C54.3199 7.75998 54.2899 7.80003 54.2499 7.84003C54.2299 7.86003 54.1999 7.88998 54.1799 7.90998C54.1299 7.96998 54.0799 8.03003 54.0299 8.09003C53.8499 8.32003 53.5699 8.43002 53.2899 8.39002C52.1899 8.23002 51.2399 8.25002 50.3999 8.39002C50.4399 7.89002 50.2999 7.14003 49.4899 6.40003C48.8299 5.80003 47.9299 5.46998 46.9599 5.46998C46.9399 5.46998 46.9199 5.46998 46.9099 5.46998C45.7099 5.46998 43.6999 5.26003 43.4199 3.90003C43.3799 3.70003 43.1799 3.58 42.9899 3.62C42.7899 3.66 42.6699 3.84999 42.7099 4.04999C42.9999 5.43999 44.4899 6.20002 46.9099 6.20002C46.9299 6.20002 46.9499 6.20002 46.9699 6.20002C47.7599 6.20002 48.4899 6.46001 49.0099 6.94001C49.7499 7.61001 49.7199 8.25998 49.6499 8.53998C47.8699 9.00998 46.7299 9.99002 46.1099 10.7C45.8399 11.01 45.4399 11.15 45.0599 11.06C43.1999 10.62 41.7699 10.91 40.7199 11.44C40.4699 10.59 39.7899 9.94 38.8799 9.74C38.3399 9.63 37.7299 9.75998 37.0799 9.90998C35.8699 10.18 35.1099 10.29 34.7099 9.54999C34.6199 9.36999 34.3999 9.31003 34.2199 9.40003C34.0399 9.49003 33.9799 9.72002 34.0699 9.89002C34.7599 11.18 36.1299 10.87 37.2399 10.62C37.8099 10.49 38.3499 10.37 38.7299 10.45C39.4299 10.6 39.9499 11.14 40.0599 11.83C39.4499 12.25 38.9999 12.74 38.6999 13.15C38.4399 13.5 38.0399 13.74 37.5799 13.83C36.3599 14.06 35.3699 14.42 34.5699 14.85C34.0799 14.84 33.6099 14.75 33.1899 14.58C32.7199 14.39 32.3899 14.01 32.0299 13.61C31.8099 13.36 31.5799 13.1 31.3099 12.88C30.3299 12.06 29.1999 11.87 28.2099 12.37C28.0299 12.46 27.9599 12.68 28.0499 12.86C28.1399 13.04 28.3599 13.11 28.5399 13.02C29.5499 12.5 30.4899 13.14 30.8399 13.43C31.0699 13.62 31.2699 13.85 31.4799 14.09C31.8799 14.54 32.2899 15.01 32.9199 15.26C33.1399 15.35 33.3799 15.41 33.6199 15.47C32.4199 16.39 31.8099 17.49 31.5099 18.45C31.5099 18.45 31.5099 18.45 31.5099 18.46C31.4899 18.5 31.0099 19.47 29.3599 19.67C29.0699 19.71 28.7599 19.69 28.3699 19.61C27.5899 19.45 25.6099 19.26 23.9799 20.79C23.8299 20.93 23.8299 21.16 23.9599 21.3C24.0299 21.38 24.1299 21.42 24.2299 21.42C24.3199 21.42 24.4099 21.39 24.4799 21.32C25.8199 20.07 27.3999 20.16 28.2299 20.33C28.6899 20.42 29.0799 20.45 29.4499 20.4C30.2499 20.3 30.8399 20.04 31.2499 19.76C31.2399 19.86 31.2299 19.95 31.2299 20.04C31.2099 20.43 30.9899 20.79 30.6599 20.96C30.0899 21.25 29.6299 21.59 29.2599 21.94C29.0099 22.18 28.8099 22.43 28.6399 22.68C28.4699 22.93 28.3299 23.19 28.2299 23.45C27.9599 24.09 27.8699 24.73 27.8599 25.27C27.8499 25.71 27.8999 26.08 27.9499 26.36C27.9699 26.47 27.9799 26.57 27.9799 26.68C27.9899 27.01 27.9299 27.34 27.7999 27.67C27.6999 27.92 27.6099 28.16 27.5199 28.41C27.4899 28.48 27.4699 28.55 27.4499 28.62C27.3899 28.79 27.3399 28.97 27.2799 29.14C27.2599 29.21 27.2399 29.29 27.2099 29.36C27.1899 29.42 27.1699 29.48 27.1599 29.54C26.9099 29.84 25.4399 31.44 22.9699 30.38C22.7799 30.3 22.5699 30.39 22.4899 30.57C22.4099 30.75 22.4999 30.97 22.6799 31.05C23.3699 31.35 24.0099 31.46 24.5699 31.46C25.5599 31.46 26.3299 31.1 26.8799 30.74C26.8699 30.79 26.8599 30.84 26.8599 30.89C26.8299 31.05 26.8099 31.21 26.7799 31.37C26.7699 31.44 26.7599 31.51 26.7499 31.57C26.7299 31.73 26.7099 31.88 26.6999 32.03C26.6999 32.08 26.6899 32.14 26.6899 32.19C26.6799 32.39 26.6599 32.59 26.6599 32.78C26.6599 32.82 26.6599 32.85 26.6599 32.89C26.6599 33.05 26.6599 33.21 26.6599 33.36C26.6599 33.42 26.6599 33.48 26.6699 33.54C26.6799 33.67 26.6799 33.81 26.6899 33.94C26.6899 33.99 26.6999 34.05 26.6999 34.1C26.7199 34.28 26.7399 34.45 26.7599 34.62C26.7599 34.62 26.7599 34.62 26.7599 34.63C26.7799 34.8 26.8099 34.97 26.8499 35.14C26.8599 35.19 26.8699 35.24 26.8799 35.28C26.8999 35.4 26.9299 35.52 26.9599 35.63C26.9699 35.68 26.9799 35.73 26.9999 35.78C27.0299 35.91 27.0699 36.04 27.1099 36.16C27.1199 36.19 27.1299 36.21 27.1299 36.24C27.1799 36.39 27.2299 36.54 27.2799 36.68C27.2899 36.71 27.3099 36.75 27.3199 36.78C27.3599 36.89 27.3999 37 27.4499 37.1C27.4699 37.14 27.4799 37.18 27.4999 37.22C27.5399 37.32 27.5899 37.42 27.6399 37.52C27.6499 37.55 27.6699 37.58 27.6799 37.61C27.7399 37.74 27.7999 37.86 27.8699 37.98C27.8799 38 27.8899 38.01 27.8999 38.03C27.9599 38.13 28.0099 38.23 28.0699 38.33C28.0899 38.36 28.1099 38.4 28.1299 38.43C28.1799 38.51 28.2299 38.6 28.2799 38.68C28.2999 38.71 28.3199 38.74 28.3299 38.76C28.4699 38.97 28.6099 39.17 28.7499 39.35C28.7699 39.37 28.7799 39.39 28.7999 39.42C28.8499 39.49 28.9099 39.56 28.9599 39.62C28.9799 39.64 28.9999 39.66 29.0099 39.69C29.0699 39.76 29.1299 39.83 29.1899 39.9C29.1999 39.91 29.1999 39.92 29.2099 39.92C29.2799 40 29.3499 40.07 29.4099 40.14C29.4199 40.15 29.4299 40.16 29.4399 40.18C29.4799 40.22 29.5099 40.26 29.5399 40.29C28.2199 39.95 26.2499 39.1 25.1999 37.2ZM71.1499 36.44C71.3799 35.77 71.5499 34.91 71.4399 33.93C71.2399 32.06 70.1099 30.3 68.0999 28.7C67.9399 28.58 67.7099 28.6 67.5899 28.76C67.4599 28.92 67.4899 29.15 67.6499 29.27C69.4999 30.74 70.5399 32.33 70.7199 34C70.9299 35.84 70.0099 37.21 69.8099 37.48C69.5299 37.64 69.2099 37.79 68.8599 37.92C68.3099 38.13 67.8299 38.44 67.4099 38.82C67.3599 38.59 67.2599 38.35 67.0899 38.1C66.6999 37.54 66.0399 37.12 65.1399 36.84C65.8799 36.5 66.4599 35.94 66.7799 35.24C67.4099 33.81 66.9599 32.36 66.5599 31.07L66.4799 30.82C65.9599 29.13 66.2699 27.21 67.2899 25.81C68.1599 24.62 68.4299 23.38 68.0799 22.22C67.6399 20.77 66.2499 19.52 64.2699 18.81C64.0799 18.74 63.8699 18.84 63.7999 19.03C63.7299 19.22 63.8299 19.43 64.0199 19.5C65.7499 20.13 67.0099 21.23 67.3799 22.44C67.6699 23.39 67.4399 24.38 66.6999 25.39C65.5499 26.96 65.1899 29.13 65.7799 31.04L65.8599 31.3C66.2399 32.52 66.6299 33.77 66.1099 34.96C65.5899 36.13 64.2699 36.52 63.3099 36.52C63.2999 36.52 63.2999 36.52 63.2999 36.52C63.1399 36.51 62.9799 36.49 62.8099 36.48C62.4699 36.46 62.1199 36.47 61.7099 36.5C61.1699 36.54 59.8499 36.55 59.1899 35.8C58.8499 35.41 58.7299 34.85 58.8099 34.14C59.2499 34.25 59.7999 34.35 60.3599 34.35C60.9699 34.35 61.5999 34.24 62.1199 33.93C62.6599 33.61 62.9999 33.1 63.0999 32.46C63.1899 31.91 63.0999 31.38 63.0199 30.86C62.9899 30.7 62.9699 30.54 62.9499 30.38C62.8199 29.36 62.9399 28.32 63.2999 27.37C63.4699 26.92 63.7399 26.53 64.0399 26.13C64.3299 25.72 64.6299 25.3 64.8199 24.81C65.5199 23 64.1999 21.55 62.7499 20.78C62.5699 20.69 62.3499 20.76 62.2599 20.93C62.1699 21.11 62.2399 21.33 62.4099 21.42C62.9799 21.72 64.7999 22.83 64.1399 24.54C63.9899 24.94 63.7199 25.31 63.4499 25.69C63.1399 26.12 62.8199 26.57 62.6199 27.11C62.2299 28.17 62.0899 29.34 62.2299 30.47C62.2499 30.64 62.2799 30.8 62.2999 30.97C62.3799 31.45 62.4499 31.9 62.3799 32.34C62.3099 32.77 62.0999 33.09 61.7499 33.3C61.0299 33.73 59.8499 33.67 58.9399 33.42C58.9699 33.15 58.9699 32.77 58.7899 32.35C58.5299 31.74 57.9899 31.25 57.1799 30.88C56.9699 30.73 56.8199 30.43 56.7899 30.06C56.7499 29.64 56.8799 29.24 57.0999 29.03C57.5599 28.6 58.1799 28.43 58.8299 28.24C59.3699 28.09 59.9299 27.92 60.4299 27.61C60.9699 27.27 61.3499 26.8 61.4999 26.28C61.8199 25.17 61.1799 24.22 60.6199 23.38C60.4799 23.18 60.3499 22.98 60.2399 22.79C59.6499 21.78 59.3899 20.56 59.5199 19.37C59.5499 19.06 59.6299 18.76 59.7199 18.45C59.8399 18 59.9599 17.53 59.9499 17.02C59.9099 15.18 58.5799 13.79 56.3899 13.29C56.1899 13.24 55.9999 13.37 55.9599 13.56C55.9199 13.76 56.0399 13.95 56.2299 13.99C57.1199 14.19 59.1799 14.89 59.2199 17.02C59.2299 17.44 59.1199 17.83 59.0099 18.25C58.9199 18.58 58.8299 18.92 58.7899 19.28C58.6399 20.63 58.9299 22 59.6099 23.15C59.7299 23.35 59.8699 23.56 60.0199 23.78C60.5199 24.52 61.0399 25.29 60.8099 26.08C60.7099 26.43 60.4399 26.75 60.0499 26.99C59.6399 27.25 59.1499 27.39 58.6399 27.54C57.9399 27.74 57.2099 27.95 56.6199 28.49C56.2299 28.85 56.0199 29.47 56.0699 30.12C56.0799 30.26 56.1099 30.4 56.1399 30.53C55.8299 30.46 55.4999 30.41 55.1399 30.38C54.3999 30.32 52.6199 30.07 51.9999 29.09C51.7099 28.64 51.6999 28.08 51.9599 27.37C52.1599 26.84 52.5199 26.35 53.0499 25.93C57.0199 22.71 55.1399 19.35 54.1499 18.06C54.0299 17.9 53.7999 17.87 53.6399 17.99C53.4799 18.11 53.4499 18.34 53.5699 18.5C56.0599 21.75 54.0299 24.19 52.5899 25.36C51.9599 25.87 51.5199 26.46 51.2799 27.12C50.9399 28.04 50.9799 28.83 51.3899 29.48C52.1599 30.69 54.0399 31.02 55.0899 31.11C55.6699 31.16 56.1599 31.26 56.5899 31.43C57.3999 31.74 57.9199 32.15 58.1399 32.65C58.3599 33.14 58.1999 33.54 58.1999 33.56V33.57C58.1999 33.57 58.1999 33.57 58.1999 33.58V33.59C58.1999 33.6 58.1899 33.61 58.1899 33.63C57.9599 34.78 58.1199 35.68 58.6799 36.32C59.5199 37.28 60.9999 37.33 61.7999 37.27C62.1699 37.24 62.4999 37.24 62.8099 37.26C65.2099 37.39 66.1599 38.04 66.5299 38.57C66.8599 39.04 66.7999 39.49 66.7699 39.64C65.9599 40.74 64.5799 42 62.4699 41.97C61.8899 41.96 61.3299 42.1 60.8299 42.37C60.6299 40.79 59.5499 39.56 57.7699 38.95C56.8399 38.63 55.8799 38.59 54.9499 38.55C54.6099 38.54 54.2699 38.52 53.9399 38.49C52.7999 38.4 51.6799 38.2 51.2399 37.4C51.0499 37.06 50.9999 36.59 51.0999 35.97C51.1299 35.8 51.1599 35.63 51.1899 35.46C51.2699 35.06 51.3499 34.66 51.3499 34.23C51.3499 32.3 49.8499 31.3 48.5199 30.42C47.9999 30.08 47.5099 29.75 47.1099 29.38C45.6499 28.05 45.0599 26.26 45.3999 24.38C45.5499 24.76 45.7599 25.07 45.9599 25.3C46.6899 26.12 47.8599 26.59 49.1099 26.59C49.2999 26.59 49.4899 26.58 49.6899 26.56C49.8899 26.54 50.0299 26.36 50.0099 26.16C49.9899 25.96 49.8099 25.82 49.6099 25.84C48.3799 25.98 47.1899 25.59 46.5099 24.82C45.9799 24.22 45.7999 23.44 46.0099 22.56C46.0499 22.4 46.0899 22.24 46.1299 22.07C46.4599 20.74 46.8799 19.09 45.9199 17.87C45.4999 17.34 44.8599 16.89 44.1199 16.62C43.9299 16.55 43.7199 16.65 43.6499 16.84C43.5799 17.03 43.6799 17.24 43.8699 17.31C44.4899 17.54 45.0099 17.9 45.3499 18.33C46.0899 19.27 45.7399 20.66 45.4299 21.9C45.3899 22.06 45.3499 22.22 45.3199 22.37C43.9999 25.14 44.4899 27.96 46.6399 29.93C47.0899 30.34 47.6199 30.69 48.1399 31.04C49.4299 31.89 50.6399 32.7 50.6399 34.24C50.6399 34.6 50.5699 34.95 50.4999 35.33C50.4599 35.51 50.4299 35.69 50.3999 35.87C50.2799 36.66 50.3499 37.28 50.6199 37.77C51.3099 39.01 53.0599 39.16 53.8999 39.23C54.2399 39.26 54.5899 39.27 54.9399 39.29C55.8599 39.33 56.7299 39.37 57.5599 39.65C58.5299 39.98 60.1199 40.83 60.1499 42.86C58.9699 43.81 56.5799 45.15 53.0199 44.48C52.9699 43.14 52.2999 42.07 51.0999 41.45C50.9099 41.35 50.7199 41.26 50.5199 41.17C50.0799 40.97 49.6599 40.78 49.3199 40.49C48.6899 39.98 48.3699 39.22 48.2199 38.68C48.0899 38.23 48.0399 37.77 47.9899 37.28C47.9099 36.57 47.8399 35.83 47.4999 35.14C47.1199 34.36 46.4899 33.68 45.6899 33.19C45.0399 32.79 44.2699 32.5 43.4799 32.35C44.1699 31.46 44.5899 30.29 44.3599 28.75C44.3299 28.55 44.1399 28.41 43.9499 28.44C43.7499 28.47 43.6099 28.65 43.6399 28.85C43.8699 30.4 43.3399 31.52 42.5599 32.32C42.5399 32.34 42.5199 32.36 42.4999 32.38C41.1699 33.71 39.1699 34.13 39.0399 34.16C38.8399 34.2 38.7199 34.39 38.7499 34.59C38.7799 34.76 38.9399 34.88 39.1099 34.88C39.1299 34.88 39.1599 34.88 39.1799 34.87C39.2199 34.86 41.3499 34.41 42.8899 32.99C43.7499 33.09 44.5999 33.37 45.3099 33.81C45.9999 34.23 46.5299 34.8 46.8499 35.46C47.1299 36.04 47.1999 36.68 47.2699 37.36C47.3199 37.86 47.3799 38.37 47.5199 38.88C47.7799 39.81 48.2499 40.56 48.8699 41.06C49.2899 41.4 49.7599 41.62 50.2299 41.83C50.4199 41.92 50.5999 42 50.7799 42.09C51.6899 42.56 52.2099 43.35 52.2999 44.35C51.5099 44.25 50.7299 44.31 50.0099 44.56C48.3599 45.13 45.0899 45.84 41.7199 44.23C41.6599 44.2 41.6099 44.18 41.5499 44.16C42.6699 43.66 44.0399 42.72 44.3199 41.08C44.4999 40.06 44.2499 39.09 43.6299 38.34C42.9899 37.57 41.9899 37.12 40.8999 37.11C40.5999 37.11 40.2899 37.11 39.9799 37.12C38.7799 37.15 37.5399 37.18 36.5599 36.56C36.2699 36.38 36.0799 36.18 35.9699 35.96C35.7499 35.5 35.7999 34.99 36.1099 34.44C36.7099 33.36 38.1199 32.51 38.9999 32.42C39.1999 32.4 39.3399 32.22 39.3199 32.02C39.2999 31.82 39.1199 31.68 38.9199 31.7C37.6899 31.83 36.1399 32.9 35.4699 34.09C35.0399 34.85 34.9899 35.61 35.3099 36.28C35.4699 36.63 35.7599 36.93 36.1699 37.18C37.3399 37.91 38.6899 37.88 39.9999 37.85C40.2999 37.84 40.5999 37.84 40.8999 37.84C41.7799 37.85 42.5699 38.2 43.0799 38.81C43.5599 39.39 43.7499 40.15 43.6099 40.96C43.2999 42.76 41.2799 43.56 40.3599 43.84C40.2299 43.83 40.0899 43.82 39.9599 43.82C39.8299 43.82 39.6999 43.83 39.5699 43.84C38.0899 44 35.5199 43.96 33.0299 42.34C33.0799 42.34 33.1399 42.35 33.1899 42.35C33.9099 42.35 34.6199 42.05 35.1099 41.52C35.6199 40.97 35.8099 40.25 35.6499 39.53C35.3999 38.45 34.5499 37.95 33.7899 37.5C33.5699 37.37 33.3399 37.24 33.1299 37.09C31.3799 35.87 30.8699 33.62 31.9599 31.97C32.0699 31.8 32.0299 31.58 31.8599 31.47C31.6899 31.36 31.4699 31.4 31.3599 31.57C30.0499 33.55 30.6399 36.24 32.7199 37.69C32.9499 37.85 33.1899 37.99 33.4199 38.13C34.1399 38.55 34.7599 38.91 34.9399 39.69C35.0499 40.18 34.9199 40.65 34.5799 41.02C34.1699 41.46 33.5199 41.69 32.9199 41.6C32.3299 41.51 31.6899 41.21 31.1099 40.74H31.0999C31.0899 40.74 31.0899 40.73 31.0799 40.72C31.0599 40.71 29.5699 39.71 28.4999 37.66C27.8799 36.46 27.5299 35.17 27.4499 33.8C27.4499 33.78 27.4499 33.77 27.4499 33.75C27.4399 33.6 27.4399 33.46 27.4399 33.31C27.4399 33.24 27.4399 33.17 27.4399 33.1C27.4399 33 27.4499 32.89 27.4499 32.79C27.4499 32.68 27.4599 32.57 27.4699 32.46C27.4799 32.38 27.4799 32.3 27.4899 32.22C27.4999 32.08 27.5199 31.94 27.5299 31.8C27.5399 31.73 27.5499 31.66 27.5599 31.59C27.5799 31.44 27.6099 31.28 27.6299 31.12C27.6399 31.05 27.6599 30.98 27.6699 30.92C27.6999 30.76 27.7399 30.6 27.7699 30.44C27.7899 30.37 27.7999 30.3 27.8199 30.22C27.8599 30.06 27.8999 29.9 27.9499 29.73C27.9699 29.65 27.9899 29.58 28.0199 29.5C28.0699 29.33 28.1299 29.16 28.1899 28.98C28.2099 28.91 28.2399 28.84 28.2599 28.77C28.3399 28.56 28.4199 28.34 28.4999 28.12C29.1099 27.66 30.0399 27.3 30.9299 27.61C31.5399 27.82 31.9699 28.33 32.4299 28.87C32.5799 29.05 32.7299 29.22 32.8799 29.39C33.8799 30.45 35.1299 31 36.4199 31C37.4699 31 38.5399 30.64 39.4999 29.91C41.2999 28.55 42.4299 26 40.9499 23.95C40.8299 23.79 40.6099 23.75 40.4399 23.87C40.2799 23.99 40.2399 24.21 40.3599 24.38C41.5699 26.05 40.5899 28.18 39.0599 29.34C37.1899 30.75 34.9799 30.58 33.4099 28.91C33.2599 28.75 33.1199 28.59 32.9799 28.42C32.4799 27.83 31.9599 27.21 31.1599 26.94C30.4099 26.68 29.5399 26.76 28.7499 27.14C28.7499 27.11 28.7499 27.08 28.7499 27.05C28.7599 26.95 28.7599 26.86 28.7599 26.76C28.7599 26.62 28.7399 26.48 28.7199 26.34C28.6799 26.12 28.6499 25.87 28.6399 25.59C28.6299 25.1 28.6899 24.53 28.9099 23.96C28.9299 23.95 28.9499 23.95 28.9699 23.94C29.5899 23.58 30.3799 23.43 31.1399 23.52C32.2499 23.65 32.9699 24.29 33.7399 24.96C34.2099 25.37 34.6999 25.8 35.2899 26.14C35.8199 26.44 36.3899 26.59 36.9499 26.59C37.6499 26.59 38.3599 26.36 38.9799 25.91C39.1399 25.79 39.1799 25.56 39.0599 25.4C38.9399 25.24 38.7099 25.2 38.5499 25.32C37.6499 25.98 36.5899 26.05 35.6399 25.51C35.1099 25.21 34.6499 24.81 34.2099 24.42C33.3999 23.7 32.5499 22.96 31.2099 22.8C30.6199 22.73 30.0299 22.79 29.4899 22.95C29.6899 22.7 29.9199 22.47 30.2199 22.24C30.4599 22.06 30.7399 21.88 31.0499 21.72C31.0899 21.7 31.1299 21.67 31.1699 21.65C32.1699 20.97 33.5899 21.12 34.6099 21.51C34.9799 21.65 35.3499 21.82 35.6999 21.98C36.1099 22.17 36.5299 22.36 36.9699 22.52C37.4499 22.69 38.1399 22.88 38.8899 22.88C39.6399 22.88 40.4399 22.7 41.1599 22.14C42.0599 21.45 42.5099 20.44 42.3699 19.45C42.2299 18.48 41.5399 17.65 40.5199 17.24C40.3299 17.16 40.1199 17.26 40.0499 17.44C39.9799 17.63 40.0699 17.84 40.2499 17.91C41.0399 18.23 41.5499 18.82 41.6499 19.54C41.7499 20.28 41.4099 21.01 40.7199 21.56C39.5399 22.47 38.0199 22.12 37.2099 21.83C36.7999 21.68 36.3999 21.5 35.9999 21.31C35.6299 21.14 35.2499 20.96 34.8599 20.82C33.8399 20.44 32.8299 20.35 31.9599 20.54C31.9899 20.43 32.0099 20.31 32.0099 20.19C32.0699 18.94 32.5599 16.97 34.8499 15.68C34.8499 15.68 34.8599 15.68 34.8599 15.67C35.6199 15.24 36.5799 14.89 37.7799 14.67C38.0199 14.63 38.2399 14.54 38.4499 14.44C38.4599 14.44 38.4799 14.44 38.4899 14.43C39.6199 13.9 40.7199 13.98 41.6799 14.67L41.9399 14.86C43.1199 15.71 44.2399 16.52 45.7899 16.52C45.9799 16.52 46.1899 16.51 46.3999 16.48C47.9599 16.28 49.5099 15.35 50.6399 13.93C50.7699 13.77 50.7399 13.54 50.5799 13.42C50.4199 13.3 50.1999 13.32 50.0699 13.48C49.0499 14.75 47.6799 15.58 46.3099 15.76C44.7099 15.96 43.6299 15.18 42.3699 14.27L42.1099 14.08C41.3499 13.54 40.4999 13.31 39.6299 13.38C40.4799 12.41 42.1499 11.24 44.9599 11.9C45.5499 12.04 46.1799 11.85 46.6199 11.42C47.9699 11.19 49.2599 11.14 50.4399 11.27C51.5499 11.39 52.9599 11.89 53.5699 12.93C53.9399 13.55 53.9499 14.28 53.6099 15.1C53.2299 16.02 52.3899 16.36 51.4299 16.74C50.2499 17.21 49.4399 18.13 49.1399 19.32C48.7699 20.79 49.2099 22.51 50.2899 23.79C50.3599 23.88 50.4599 23.92 50.5699 23.92C50.6499 23.92 50.7399 23.89 50.7999 23.83C50.9499 23.7 50.9699 23.47 50.8399 23.32C49.9199 22.23 49.5299 20.72 49.8399 19.49C50.0099 18.81 50.4699 17.9 51.6999 17.41C52.7199 17 53.7799 16.57 54.2799 15.37C54.7099 14.34 54.6799 13.37 54.1899 12.55C53.4399 11.28 51.7999 10.68 50.5099 10.54C49.5599 10.44 48.5599 10.44 47.5099 10.56C48.6099 9.69 50.4399 8.84001 53.2399 9.25001C53.7099 9.32001 54.1899 9.15 54.5299 8.81C55.6299 8.78 56.7399 9.07 57.5999 9.62C58.7699 10.37 59.1599 11.54 59.5699 12.78C59.9599 13.96 60.3599 15.18 61.4699 16.07C62.5299 16.93 63.8899 17.39 65.1999 17.84C67.6899 18.69 69.8399 19.42 69.9399 22.5C69.9499 22.7 70.1099 22.85 70.2999 22.85H70.3099C70.5099 22.84 70.6699 22.67 70.6599 22.47C70.5299 18.9 67.9399 18.01 65.4199 17.15C64.1699 16.72 62.8699 16.28 61.9099 15.5C60.9699 14.74 60.6199 13.67 60.2399 12.54C59.8099 11.23 59.3599 9.89 57.9699 8.99C57.1599 8.47 56.1699 8.16002 55.1499 8.08002C56.0199 7.26002 57.4499 6.52002 59.3899 7.51002C59.4699 7.55002 59.5599 7.59 59.6399 7.62C59.7099 7.65 59.7899 7.67 59.8599 7.68C59.8699 7.68 59.8899 7.69001 59.8999 7.69001C59.9799 7.71001 60.0699 7.71999 60.1499 7.72999C60.8099 7.88999 62.9099 8.79002 62.9599 14.08C62.9599 14.28 63.1199 14.44 63.3199 14.44C63.5199 14.44 63.6799 14.27 63.6799 14.07C63.6499 10.36 62.6199 8.59001 61.6499 7.75001C63.1799 7.87001 65.2699 8.59 65.6999 11.49C65.6999 11.5 65.6999 11.51 65.7099 11.52C65.7199 11.55 66.2699 14.05 64.1199 15.38C63.9499 15.49 63.8999 15.71 63.9999 15.88C64.0699 15.99 64.1899 16.05 64.3099 16.05C64.3799 16.05 64.4399 16.03 64.4999 16C65.9699 15.09 66.3899 13.72 66.4699 12.71C66.5799 12.79 66.7099 12.86 66.8399 12.91C67.4099 13.14 68.1799 13.55 68.8099 14.23C68.9099 14.53 69.2599 15.93 67.8099 17.07C67.6499 17.19 67.6199 17.42 67.7499 17.58C67.8199 17.67 67.9299 17.72 68.0399 17.72C68.1199 17.72 68.1999 17.69 68.2599 17.64C69.1199 16.97 69.4899 16.18 69.5999 15.47C69.7899 15.94 69.9199 16.49 69.9299 17.12C69.9399 17.74 70.1999 18.3 70.6399 18.65C71.2599 19.14 72.1099 20.1 72.2399 21.6C72.1699 21.92 71.5999 23.85 68.7299 23.85C68.6999 23.85 68.6799 23.85 68.6499 23.85C68.4499 23.85 68.2899 24.01 68.2899 24.21C68.2899 24.41 68.4499 24.58 68.6499 24.58C68.6799 24.58 68.7099 24.58 68.7299 24.58C70.4499 24.58 71.4699 23.97 72.0899 23.31C72.0699 23.41 72.0499 23.5 72.0199 23.61C71.7099 24.67 71.9699 25.85 72.6999 26.7C73.8199 27.99 73.9399 29.4 73.0699 30.88C72.4799 30.67 72.0899 30.19 72.0599 29.62C72.0399 29.33 72.0599 29.03 72.0899 28.75C72.1399 28.12 72.1899 27.48 71.8299 26.78C71.3699 25.89 70.4299 25.32 69.1799 25.16C68.9799 25.14 68.7999 25.28 68.7699 25.48C68.7499 25.68 68.8899 25.86 69.0899 25.89C69.7999 25.98 70.7399 26.26 71.1899 27.12C71.4599 27.63 71.4199 28.13 71.3699 28.7C71.3499 29.01 71.3199 29.33 71.3399 29.67C71.3899 30.5 71.9199 31.19 72.7299 31.52C72.4599 32.08 72.3199 32.71 72.3299 33.38C72.3399 34.25 72.0899 35.42 71.1499 36.44Z" fill="#5F1DDB"/><path d="M6.5 8.63989L28.74 73.4199H64.42L88.2 8.63989H6.5Z" fill="url(#paint5_linear_1_4401)"/><defs><linearGradient id="paint0_linear_1_4401" x1="0.616373" y1="90.4415" x2="92.5373" y2="90.4415" gradientUnits="userSpaceOnUse"><stop stop-color="#6B2569"/><stop offset="0.179" stop-color="#892277"/><stop offset="0.3801" stop-color="#A52084"/><stop offset="0.4973" stop-color="#AF1F89"/><stop offset="0.5293" stop-color="#B61F94"/><stop offset="0.6804" stop-color="#D61DC2"/><stop offset="0.8146" stop-color="#EC1BE3"/><stop offset="0.9258" stop-color="#FA1AF8"/><stop offset="1" stop-color="#FF1AFF"/></linearGradient><linearGradient id="paint1_linear_1_4401" x1="0.61681" y1="74.4572" x2="92.5387" y2="74.4572" gradientUnits="userSpaceOnUse"><stop stop-color="#005BAA"/><stop offset="0.453" stop-color="#0BA2D5"/><stop offset="0.8164" stop-color="#12D4F3"/><stop offset="0.9946" stop-color="#15E8FF"/></linearGradient><linearGradient id="paint2_linear_1_4401" x1="0.61681" y1="73.9821" x2="92.5387" y2="73.9821" gradientUnits="userSpaceOnUse"><stop offset="0.00540507" stop-color="#FF15FF"/><stop offset="0.1804" stop-color="#EB16EC"/><stop offset="0.5373" stop-color="#B919BA"/><stop offset="1" stop-color="#6F1D72"/></linearGradient><linearGradient id="paint3_linear_1_4401" x1="68.8784" y1="47.0525" x2="38.4388" y2="15.0364" gradientUnits="userSpaceOnUse"><stop stop-color="#4E1EB6"/><stop offset="0.5051" stop-color="#FCF4FF"/><stop offset="1" stop-color="#C72EE3"/></linearGradient><linearGradient id="paint4_linear_1_4401" x1="45.173" y1="26.083" x2="18.6141" y2="-9.45004" gradientUnits="userSpaceOnUse"><stop stop-color="#4E1EB6"/><stop offset="0.5051" stop-color="#FCF4FF"/><stop offset="1" stop-color="#C72EE3"/></linearGradient><linearGradient id="paint5_linear_1_4401" x1="47.3473" y1="73.424" x2="47.3473" y2="8.63819" gradientUnits="userSpaceOnUse"><stop offset="0.00540522" stop-color="#FFB2D7"/><stop offset="0.3064" stop-color="#FFC5E1" stop-opacity="0.6973"/><stop offset="0.9173" stop-color="#FFF8FB" stop-opacity="0.0831"/><stop offset="1" stop-color="white" stop-opacity="0"/></linearGradient></defs></svg>