<svg xmlns:xlink="http://www.w3.org/1999/xlink" xmlns="http://www.w3.org/2000/svg" width="93" height="139" viewBox="0 0 93 139" fill="none"><path opacity="0.03" d="M91.0099 109.7L50.1399 86.1101C48.0899 84.9301 44.7799 84.9301 42.7499 86.1101L2.14994 109.7C0.10994 110.88 0.129899 112.8 2.1699 113.98L43.0399 137.57C45.0899 138.75 48.3999 138.75 50.4299 137.57L91.0299 113.98C93.0699 112.8 93.0599 110.88 91.0099 109.7Z" fill="#15E8FF"/><path opacity="0.1" d="M91.0099 103.88L50.1399 80.29C48.0899 79.11 44.7799 79.11 42.7499 80.29L2.14994 103.88C0.10994 105.06 0.129899 106.98 2.1699 108.16L43.0399 131.75C45.0899 132.93 48.3999 132.93 50.4299 131.75L91.0299 108.16C93.0699 106.98 93.0599 105.06 91.0099 103.88Z" fill="#FE1AFF"/><path opacity="0.2" d="M91.0099 97.78L50.1399 74.1899C48.0899 73.0099 44.7799 73.0099 42.7499 74.1899L2.14994 97.78C0.10994 98.96 0.129899 100.88 2.1699 102.06L43.0399 125.65C45.0899 126.83 48.3999 126.83 50.4299 125.65L91.0299 102.06C93.0699 100.87 93.0599 98.96 91.0099 97.78Z" fill="#DA3CFF"/><path opacity="0.4" d="M91.0099 91.09L50.1399 67.5C48.0899 66.32 44.7799 66.32 42.7499 67.5L2.14994 91.09C0.10994 92.27 0.129899 94.19 2.1699 95.37L43.0399 118.96C45.0899 120.14 48.3999 120.14 50.4299 118.96L91.0299 95.37C93.0699 94.19 93.0599 92.27 91.0099 91.09Z" fill="#E854FF"/><path opacity="0.6" d="M91.0099 84.11L50.1399 60.52C48.0899 59.34 44.7799 59.34 42.7499 60.52L2.14994 84.11C0.10994 85.29 0.129899 87.21 2.1699 88.39L43.0399 111.98C45.0899 113.16 48.3999 113.16 50.4299 111.98L91.0299 88.39C93.0699 87.21 93.0599 85.29 91.0099 84.11Z" fill="#FF56FF"/><path d="M92.5499 73.12V79.21C92.5499 79.27 92.5499 79.33 92.5499 79.39V79.65H92.5199C92.3899 80.3 91.8999 80.9301 91.0399 81.4301L50.4399 105.03C48.4099 106.21 45.0999 106.21 43.0499 105.03L2.17987 81.4399C1.31987 80.9399 0.819871 80.31 0.679871 79.66H0.639893V73C0.639893 73.77 1.15987 74.55 2.17987 75.14L43.0499 98.73C45.0999 99.91 48.4099 99.91 50.4399 98.73L91.0399 75.13C91.9899 74.57 92.4999 73.85 92.5499 73.12Z" fill="url(#paint0_linear_1_4434)"/><path d="M91.0099 71.3199L50.1399 47.73C48.0899 46.55 44.7799 46.55 42.7499 47.73L2.14994 71.3199C0.10994 72.4999 0.129899 74.42 2.1699 75.6L43.0399 99.1899C45.0899 100.37 48.3999 100.37 50.4299 99.1899L91.0299 75.6C93.0699 74.42 93.0599 72.4999 91.0099 71.3199Z" fill="url(#paint1_linear_1_4434)"/><path d="M91.0099 70.84L50.1399 47.25C48.0899 46.07 44.7799 46.07 42.7499 47.25L2.14994 70.84C0.10994 72.02 0.129899 73.94 2.1699 75.12L43.0399 98.7099C45.0899 99.8899 48.3999 99.8899 50.4299 98.7099L91.0299 75.12C93.0699 73.94 93.0599 72.02 91.0099 70.84Z" fill="url(#paint2_linear_1_4434)"/><path d="M46.59 85.2098C56.4428 85.2098 64.43 79.4836 64.43 72.4199C64.43 65.3562 56.4428 59.6299 46.59 59.6299C36.7373 59.6299 28.75 65.3562 28.75 72.4199C28.75 79.4836 36.7373 85.2098 46.59 85.2098Z" fill="#FFB2D7"/><path d="M29.5498 40.99L29.5398 44.62C29.5298 47.28 31.2898 49.94 34.7998 51.97C41.7798 56 53.0498 56 59.9898 51.97C63.4298 49.97 65.1598 47.35 65.1698 44.73L65.1799 41.1L29.5498 40.99Z" fill="url(#paint3_linear_1_4434)"/><path d="M59.9199 33.75C52.9399 29.72 41.6599 29.72 34.7299 33.75C27.7899 37.78 27.8299 44.32 34.8099 48.35C41.7899 52.38 53.0599 52.38 59.9999 48.35C66.9399 44.31 66.8999 37.78 59.9199 33.75Z" fill="url(#paint4_linear_1_4434)"/><path d="M64.0499 36.3401C64.2799 33.6901 62.6599 31 59.1599 28.98C52.6099 25.2 42.0299 25.2 35.5199 28.98C32.2799 30.87 30.6599 33.33 30.6599 35.8C30.6599 35.78 30.6499 39.18 30.6499 39.18C30.6399 41.67 32.29 44.1701 35.59 46.0801C42.1399 49.8601 52.7199 49.8601 59.2299 46.0801C62.4599 44.2001 64.08 41.7401 64.09 39.2801L64.0999 35.87C64.0799 36.02 64.0599 36.1801 64.0499 36.3401Z" fill="#3E31A4"/><path d="M47.75 26.1499V48.8899C51.85 48.8399 55.92 47.9299 59.07 46.1399V28.9199C55.92 27.1299 51.85 26.2099 47.75 26.1499Z" fill="url(#paint5_linear_1_4434)"/><path d="M29.5498 31.2L29.5398 34.83C29.5298 37.49 31.2898 40.1499 34.7998 42.1799C41.7798 46.2099 53.0498 46.2099 59.9898 42.1799C63.4298 40.1799 65.1598 37.5599 65.1698 34.9399L65.1799 31.3099L29.5498 31.2Z" fill="url(#paint6_linear_1_4434)"/><path d="M59.9199 23.96C52.9399 19.93 41.6599 19.93 34.7299 23.96C27.7899 27.99 27.8299 34.53 34.8099 38.56C41.7899 42.59 53.0599 42.59 59.9999 38.56C66.9399 34.52 66.8999 27.99 59.9199 23.96Z" fill="url(#paint7_linear_1_4434)"/><path d="M64.0499 26.54C64.2799 23.89 62.6599 21.2 59.1599 19.18C52.6099 15.4 42.0299 15.4 35.5199 19.18C32.2799 21.07 30.6599 23.53 30.6599 26C30.6599 25.98 30.6499 29.38 30.6499 29.38C30.6399 31.87 32.29 34.37 35.59 36.28C42.1399 40.06 52.7199 40.06 59.2299 36.28C62.4599 34.4 64.08 31.94 64.09 29.48L64.0999 26.07C64.0799 26.23 64.0599 26.39 64.0499 26.54Z" fill="#3E31A4"/><path d="M47.75 16.3599V39.0999C51.85 39.0499 55.92 38.1399 59.07 36.3499V19.1299C55.92 17.3399 51.85 16.4199 47.75 16.3599Z" fill="url(#paint8_linear_1_4434)"/><path d="M29.5498 21.4099L29.5398 25.0399C29.5298 27.6999 31.2898 30.36 34.7998 32.39C41.7798 36.42 53.0498 36.42 59.9898 32.39C63.4298 30.39 65.1598 27.77 65.1698 25.15L65.1799 21.52L29.5498 21.4099Z" fill="url(#paint9_linear_1_4434)"/><path d="M59.9199 14.16C52.9399 10.13 41.6599 10.13 34.7299 14.16C27.7899 18.19 27.8299 24.73 34.8099 28.76C41.7899 32.79 53.0599 32.79 59.9999 28.76C66.9399 24.72 66.8999 18.19 59.9199 14.16Z" fill="url(#paint10_linear_1_4434)"/><path d="M64.0499 16.7499C64.2799 14.0999 62.6599 11.4099 59.1599 9.38993C52.6099 5.60993 42.0299 5.60993 35.5199 9.38993C32.2799 11.2799 30.6599 13.7399 30.6599 16.2099C30.6599 16.1899 30.6499 19.5899 30.6499 19.5899C30.6399 22.0799 32.29 24.5799 35.59 26.4899C42.1399 30.2699 52.7199 30.2699 59.2299 26.4899C62.4599 24.6099 64.08 22.1499 64.09 19.6899L64.0999 16.2799C64.0799 16.4399 64.0599 16.5899 64.0499 16.7499Z" fill="#3E31A4"/><path d="M47.75 6.56006V29.3C51.85 29.25 55.92 28.34 59.07 26.55V9.33008C55.92 7.55008 51.85 6.63006 47.75 6.56006Z" fill="url(#paint11_linear_1_4434)"/><path d="M29.5498 11.6199L29.5398 15.2499C29.5298 17.9099 31.2898 20.5699 34.7998 22.5999C41.7798 26.6299 53.0498 26.6299 59.9898 22.5999C63.4298 20.5999 65.1598 17.9799 65.1698 15.3599L65.1799 11.7299L29.5498 11.6199Z" fill="url(#paint12_linear_1_4434)"/><path d="M59.9199 4.36991C52.9399 0.339912 41.6599 0.339912 34.7299 4.36991C27.7899 8.39991 27.8299 14.9399 34.8099 18.9699C41.7899 22.9999 53.0599 22.9999 59.9999 18.9699C66.9399 14.9299 66.8999 8.39991 59.9199 4.36991Z" fill="url(#paint13_linear_1_4434)"/><path d="M57.98 4.70008C52.08 1.29008 42.55 1.29008 36.69 4.70008C30.83 8.11008 30.86 13.6301 36.76 17.0301C42.66 20.4401 52.19 20.4401 58.05 17.0301C63.91 13.6301 63.88 8.11008 57.98 4.70008Z" fill="url(#paint14_linear_1_4434)"/><path d="M51.57 3.62988C46.66 3.62988 43.36 3.62988 43.33 3.62988C32.63 3.62988 27.27 15.3199 43.33 15.3199C43.36 15.3199 44.98 15.3199 47.63 15.3199C49.8 15.3199 51.57 13.5599 51.57 11.3899V3.62988Z" fill="#CA8FF1"/><path d="M54.4299 10.42C50.5499 12.67 44.2499 12.67 40.3499 10.42C38.3899 9.29004 37.4099 7.80006 37.4099 6.31006L37.3999 9.57007C37.3999 11.0601 38.3799 12.5401 40.3399 13.6801C44.2399 15.9301 50.5399 15.9301 54.4199 13.6801C56.3499 12.5601 57.3099 11.1001 57.3099 9.63007L57.3199 6.37006C57.3199 7.84006 56.3599 9.30004 54.4299 10.42Z" fill="url(#paint15_linear_1_4434)"/><path d="M54.3798 2.26001C50.4798 0.0100098 44.1698 0.0100098 40.2998 2.26001C36.4198 4.51001 36.4498 8.16998 40.3498 10.42C44.2498 12.67 50.5498 12.67 54.4298 10.42C58.3098 8.16998 58.2898 4.52001 54.3798 2.26001Z" fill="url(#paint16_linear_1_4434)"/><path d="M50.3199 4.18003C48.6799 3.23003 46.0199 3.23003 44.3899 4.18003C42.7599 5.13003 42.7698 6.67003 44.4098 7.62003C46.0498 8.57003 48.7099 8.57003 50.3399 7.62003C51.9799 6.66003 51.9699 5.13003 50.3199 4.18003Z" fill="url(#paint17_linear_1_4434)"/><path d="M6.51001 7.64014L28.75 72.4202H64.43L88.21 7.64014H6.51001Z" fill="url(#paint18_linear_1_4434)"/><defs><linearGradient id="paint0_linear_1_4434" x1="0.632793" y1="89.4415" x2="92.5537" y2="89.4415" gradientUnits="userSpaceOnUse"><stop stop-color="#6B2569"/><stop offset="0.179" stop-color="#892277"/><stop offset="0.3801" stop-color="#A52084"/><stop offset="0.4973" stop-color="#AF1F89"/><stop offset="0.5293" stop-color="#B61F94"/><stop offset="0.6804" stop-color="#D61DC2"/><stop offset="0.8146" stop-color="#EC1BE3"/><stop offset="0.9258" stop-color="#FA1AF8"/><stop offset="1" stop-color="#FF1AFF"/></linearGradient><linearGradient id="paint1_linear_1_4434" x1="0.63332" y1="73.4572" x2="92.5551" y2="73.4572" gradientUnits="userSpaceOnUse"><stop stop-color="#005BAA"/><stop offset="0.453" stop-color="#0BA2D5"/><stop offset="0.8164" stop-color="#12D4F3"/><stop offset="0.9946" stop-color="#15E8FF"/></linearGradient><linearGradient id="paint2_linear_1_4434" x1="0.63332" y1="72.9821" x2="92.5551" y2="72.9821" gradientUnits="userSpaceOnUse"><stop offset="0.00540507" stop-color="#FF15FF"/><stop offset="0.1804" stop-color="#EB16EC"/><stop offset="0.5373" stop-color="#B919BA"/><stop offset="1" stop-color="#6F1D72"/></linearGradient><linearGradient id="paint3_linear_1_4434" x1="30.2199" y1="47.9932" x2="64.7875" y2="47.9932" gradientUnits="userSpaceOnUse"><stop stop-color="#8B3DCE"/><stop offset="1" stop-color="#CB89F0"/></linearGradient><linearGradient id="paint4_linear_1_4434" x1="29.5545" y1="41.0444" x2="65.183" y2="41.0444" gradientUnits="userSpaceOnUse"><stop stop-color="#FFD4FF"/><stop offset="1" stop-color="#FFE9FF"/></linearGradient><linearGradient id="paint5_linear_1_4434" x1="47.7548" y1="37.5216" x2="59.0704" y2="37.5216" gradientUnits="userSpaceOnUse"><stop stop-color="#003B49"/><stop offset="0.4759" stop-color="#009BB9"/><stop offset="0.7923" stop-color="#00D7FF"/><stop offset="1" stop-color="#00FAFF"/></linearGradient><linearGradient id="paint6_linear_1_4434" x1="30.2199" y1="38.2008" x2="64.7875" y2="38.2008" gradientUnits="userSpaceOnUse"><stop stop-color="#8B3DCE"/><stop offset="1" stop-color="#CB89F0"/></linearGradient><linearGradient id="paint7_linear_1_4434" x1="29.5545" y1="31.2522" x2="65.183" y2="31.2522" gradientUnits="userSpaceOnUse"><stop stop-color="#FFD4FF"/><stop offset="1" stop-color="#FFE9FF"/></linearGradient><linearGradient id="paint8_linear_1_4434" x1="47.7548" y1="27.7294" x2="59.0704" y2="27.7294" gradientUnits="userSpaceOnUse"><stop stop-color="#003B49"/><stop offset="0.4759" stop-color="#009BB9"/><stop offset="0.7923" stop-color="#00D7FF"/><stop offset="1" stop-color="#00FAFF"/></linearGradient><linearGradient id="paint9_linear_1_4434" x1="30.2199" y1="28.4086" x2="64.7875" y2="28.4086" gradientUnits="userSpaceOnUse"><stop stop-color="#8B3DCE"/><stop offset="1" stop-color="#CB89F0"/></linearGradient><linearGradient id="paint10_linear_1_4434" x1="29.5545" y1="21.46" x2="65.183" y2="21.46" gradientUnits="userSpaceOnUse"><stop stop-color="#FFD4FF"/><stop offset="1" stop-color="#FFE9FF"/></linearGradient><linearGradient id="paint11_linear_1_4434" x1="47.7548" y1="17.9374" x2="59.0704" y2="17.9374" gradientUnits="userSpaceOnUse"><stop stop-color="#003B49"/><stop offset="0.4759" stop-color="#009BB9"/><stop offset="0.7923" stop-color="#00D7FF"/><stop offset="1" stop-color="#00FAFF"/></linearGradient><linearGradient id="paint12_linear_1_4434" x1="30.2199" y1="18.6164" x2="64.7875" y2="18.6164" gradientUnits="userSpaceOnUse"><stop stop-color="#8B3DCE"/><stop offset="1" stop-color="#CB89F0"/></linearGradient><linearGradient id="paint13_linear_1_4434" x1="37.875" y1="9.6551" x2="60.9404" y2="14.5457" gradientUnits="userSpaceOnUse"><stop offset="0.3103" stop-color="#FFD4FF"/><stop offset="0.3251" stop-color="white"/><stop offset="1" stop-color="#FFE9FF"/></linearGradient><linearGradient id="paint14_linear_1_4434" x1="7.90844" y1="22.1327" x2="60.4851" y2="7.12353" gradientUnits="userSpaceOnUse"><stop stop-color="#FFD8FF"/><stop offset="1" stop-color="#FFE9FF"/></linearGradient><linearGradient id="paint15_linear_1_4434" x1="37.7816" y1="10.8425" x2="57.1022" y2="10.8425" gradientUnits="userSpaceOnUse"><stop stop-color="#8B3DCE"/><stop offset="1" stop-color="#CB89F0"/></linearGradient><linearGradient id="paint16_linear_1_4434" x1="37.4095" y1="6.3416" x2="57.3232" y2="6.3416" gradientUnits="userSpaceOnUse"><stop stop-color="#FFDDFF"/><stop offset="1" stop-color="#FFE9FF"/></linearGradient><linearGradient id="paint17_linear_1_4434" x1="43.1697" y1="5.89503" x2="51.5633" y2="5.89503" gradientUnits="userSpaceOnUse"><stop stop-color="#CB89F0"/><stop offset="1" stop-color="#B578D7"/></linearGradient><linearGradient id="paint18_linear_1_4434" x1="47.3637" y1="72.4243" x2="47.3637" y2="7.63844" gradientUnits="userSpaceOnUse"><stop offset="0.00540522" stop-color="#FFB2D7"/><stop offset="0.3064" stop-color="#FFC5E1" stop-opacity="0.6973"/><stop offset="0.9173" stop-color="#FFF8FB" stop-opacity="0.0831"/><stop offset="1" stop-color="white" stop-opacity="0"/></linearGradient></defs></svg>